<?xml version="1.0" encoding="UTF-8"?><svg id="Layer_2" xmlns="http://www.w3.org/2000/svg" viewBox="0 0 233.88 150.25"><defs><style>.cls-1{fill:#173a2c;}</style></defs><g id="Layer_1-2"><g><path class="cls-1" d="M52.2,150.25h-12.73c-22.92,0-39.47-10.61-39.47-34.8V6.79C8.49,3.18,25.04,0,35.23,0h13.58c35.65,0,63.88,23.98,63.88,73.64,0,46.05-25.04,76.61-60.48,76.61Zm-4.03-119.47h-6.58c-1.49,0-4.03,.64-5.73,.85V108.23c0,6.79,3.4,11.25,9.34,11.25h2.55c18.67,0,29.07-13.37,29.07-42.23,0-33.95-11.67-46.47-28.65-46.47Z"/><path class="cls-1" d="M218.64,.4l-5.04-.4h-30.54c3.83,3.05,5.07,10.69,5.19,11.48,0,.05,0,.09,0,.13v26.58c0,.26,.11,.51,.3,.69l36.4,33.24c1.24,1.24,1.02,2.52,.9,2.92-.02,.08-.06,.15-.1,.23-.29,.46-.7,1.06-1,1.49-.24,.33-.66,.48-1.05,.35l-34.02-10.99c-.6-.19-1.21,.25-1.22,.88l-.31,27.3c0,.26,.11,.52,.3,.7l14.9,13.83c.08,.07,.14,.16,.19,.25,.92,1.68,.71,3.35,.44,4.31-.13,.48-.63,.76-1.11,.65l-17.59-4.17c-.39-.09-.8,.08-1.01,.42-2.55,4.14-4.06,3.83-4.06,3.83-.11,.01-.23,0-.34,0-.11,.01-.23,.01-.34,0,0,0-1.52,.3-4.06-3.83-.21-.34-.62-.51-1.01-.42l-17.59,4.17c-.48,.11-.98-.17-1.11-.65-.26-.96-.48-2.63,.44-4.31,.05-.09,.12-.18,.19-.25l14.9-13.83c.19-.18,.3-.43,.3-.7l-.31-27.3c0-.63-.62-1.07-1.22-.88l-34.02,10.99c-.39,.13-.81-.01-1.05-.35-.3-.43-.71-1.02-1-1.49-.04-.07-.08-.14-.1-.23-.11-.41-.33-1.68,.9-2.92l36.4-33.24c.19-.18,.3-.43,.3-.69V11.61s0-.09,0-.13c.12-.79,1.37-8.42,5.19-11.48h-50.82V94.12c0,35.64,21.13,56.13,52.5,56.13,34.36,0,55.49-23.05,55.49-58.9V24.12c0-15.06-5.53-22.05-15.24-23.71Z"/></g></g></svg>